<svg width="83" height="84" viewBox="0 0 83 84" fill="none" xmlns="http://www.w3.org/2000/svg">
<g opacity="0.52">
<path d="M74.4769 13.2831L70.5393 9.34546C70.0647 8.86511 69.4996 8.48373 68.8766 8.22343C68.2535 7.96314 67.585 7.8291 66.9098 7.8291C66.2346 7.8291 65.5661 7.96314 64.9431 8.22343C64.3201 8.48373 63.7549 8.86511 63.2804 9.34546L45.1742 27.4551V38.6482H56.3707L74.4769 20.542C74.9572 20.0675 75.3386 19.5023 75.5989 18.8793C75.8592 18.2562 75.9932 17.5877 75.9932 16.9125C75.9932 16.2373 75.8592 15.5688 75.5989 14.9458C75.3386 14.3228 74.9572 13.7576 74.4769 13.2831ZM54.0047 33.3409H50.478V29.8142L62.2943 18.0116L65.821 21.5384L54.0047 33.3409Z" fill="#708FFF"/>
<path d="M65.7183 66.0408H17.7821V18.1046H38.3262V11.2566H17.7821C15.9676 11.262 14.2289 11.9852 12.9458 13.2683C11.6627 14.5514 10.9395 16.2901 10.9341 18.1046V66.0408C10.9395 67.8553 11.6627 69.594 12.9458 70.8771C14.2289 72.1602 15.9676 72.8834 17.7821 72.8888H65.7183C67.5328 72.8834 69.2715 72.1602 70.5546 70.8771C71.8376 69.594 72.5609 67.8553 72.5663 66.0408V45.4967H65.7183V66.0408Z" fill="#708FFF"/>
</g>
</svg>
