<svg width="22" height="28" viewBox="0 0 22 28" fill="none" xmlns="http://www.w3.org/2000/svg">
<path d="M11.9626 11.543C11.9626 11.2778 12.0664 11.0234 12.251 10.8359C12.4356 10.6483 12.6859 10.543 12.947 10.543H17.5408C17.8018 10.543 18.0522 10.6483 18.2368 10.8359C18.4214 11.0234 18.5251 11.2778 18.5251 11.543C18.5251 11.8082 18.4214 12.0625 18.2368 12.2501C18.0522 12.4376 17.8018 12.543 17.5408 12.543H12.947C12.6859 12.543 12.4356 12.4376 12.251 12.2501C12.0664 12.0625 11.9626 11.8082 11.9626 11.543ZM12.947 17.8763C12.6859 17.8763 12.4356 17.9817 12.251 18.1692C12.0664 18.3567 11.9626 18.6111 11.9626 18.8763C11.9626 19.1415 12.0664 19.3959 12.251 19.5834C12.4356 19.7709 12.6859 19.8763 12.947 19.8763H17.5408C17.8018 19.8763 18.0522 19.7709 18.2368 19.5834C18.4214 19.3959 18.5251 19.1415 18.5251 18.8763C18.5251 18.6111 18.4214 18.3567 18.2368 18.1692C18.0522 17.9817 17.8018 17.8763 17.5408 17.8763H12.947ZM9.70515 10.9163C9.80186 10.8248 9.87943 10.7144 9.93323 10.5917C9.98704 10.469 10.016 10.3366 10.0183 10.2023C10.0206 10.0681 9.99632 9.93469 9.94681 9.81017C9.8973 9.68565 9.82361 9.57254 9.73013 9.47758C9.63666 9.38263 9.52532 9.30777 9.40274 9.25747C9.28017 9.20718 9.14888 9.18248 9.01671 9.18485C8.88454 9.18722 8.75419 9.21661 8.63344 9.27126C8.51269 9.32592 8.40402 9.40472 8.3139 9.50297L6.38452 11.463L5.76765 10.8363C5.58104 10.6597 5.33423 10.5635 5.07921 10.5681C4.82419 10.5726 4.58087 10.6776 4.40052 10.8608C4.22016 11.044 4.11685 11.2912 4.11235 11.5503C4.10785 11.8093 4.20252 12.0601 4.3764 12.2496L5.6889 13.583C5.87347 13.7702 6.12366 13.8754 6.38452 13.8754C6.64538 13.8754 6.89558 13.7702 7.08015 13.583L9.70515 10.9163ZM9.70515 16.8363C9.88949 17.0238 9.99303 17.278 9.99303 17.543C9.99303 17.808 9.88949 18.0621 9.70515 18.2496L7.08015 20.9163C6.89558 21.1036 6.64538 21.2088 6.38452 21.2088C6.12366 21.2088 5.87347 21.1036 5.6889 20.9163L4.3764 19.583C4.27968 19.4914 4.20211 19.381 4.14831 19.2584C4.09451 19.1357 4.06558 19.0033 4.06325 18.869C4.06091 18.7347 4.08523 18.6014 4.13474 18.4768C4.18424 18.3523 4.25793 18.2392 4.35141 18.1443C4.44488 18.0493 4.55623 17.9744 4.6788 17.9241C4.80137 17.8738 4.93266 17.8491 5.06483 17.8515C5.197 17.8539 5.32735 17.8833 5.4481 17.9379C5.56885 17.9926 5.67753 18.0714 5.76765 18.1696L6.38452 18.7963L8.3139 16.8363C8.49847 16.649 8.74866 16.5438 9.00952 16.5438C9.27038 16.5438 9.52058 16.649 9.70515 16.8363ZM16.5485 3.32164C16.4935 2.56633 16.1593 1.86012 15.613 1.34473C15.0668 0.82934 14.3488 0.542924 13.6033 0.542969H9.00952C8.28313 0.542991 7.58224 0.814978 7.04083 1.30693C6.49942 1.79888 6.15548 2.47629 6.07477 3.20964H3.75952C2.9763 3.20964 2.22517 3.52571 1.67135 4.08832C1.11753 4.65092 0.806396 5.41399 0.806396 6.20964V24.2096C0.806396 25.0053 1.11753 25.7683 1.67135 26.331C2.22517 26.8936 2.9763 27.2096 3.75952 27.2096H18.8533C19.2411 27.2096 19.6251 27.132 19.9834 26.9813C20.3417 26.8305 20.6672 26.6095 20.9414 26.331C21.2157 26.0524 21.4332 25.7217 21.5816 25.3577C21.73 24.9937 21.8064 24.6036 21.8064 24.2096V6.20964C21.8064 5.81567 21.73 5.42556 21.5816 5.06159C21.4332 4.69761 21.2157 4.36689 20.9414 4.08832C20.6672 3.80974 20.3417 3.58876 19.9834 3.438C19.6251 3.28723 19.2411 3.20964 18.8533 3.20964H16.538L16.5485 3.32164ZM16.5485 3.33764L16.5564 3.54297C16.5564 3.47364 16.5538 3.40564 16.5498 3.33764H16.5485ZM9.00952 6.54297H13.6033C14.627 6.54297 15.5287 6.01364 16.059 5.20964H18.8533C19.1143 5.20964 19.3647 5.31499 19.5493 5.50253C19.7339 5.69006 19.8376 5.94442 19.8376 6.20964V24.2096C19.8376 24.4749 19.7339 24.7292 19.5493 24.9167C19.3647 25.1043 19.1143 25.2096 18.8533 25.2096H3.75952C3.49845 25.2096 3.24807 25.1043 3.06346 24.9167C2.87886 24.7292 2.77515 24.4749 2.77515 24.2096V6.20964C2.77515 5.94442 2.87886 5.69006 3.06346 5.50253C3.24807 5.31499 3.49845 5.20964 3.75952 5.20964H6.55383C7.08408 6.01364 7.98577 6.54297 9.00952 6.54297ZM9.00952 2.54297H13.6033C13.8643 2.54297 14.1147 2.64833 14.2993 2.83586C14.4839 3.0234 14.5876 3.27775 14.5876 3.54297C14.5876 3.80819 14.4839 4.06254 14.2993 4.25008C14.1147 4.43761 13.8643 4.54297 13.6033 4.54297H9.00952C8.74845 4.54297 8.49807 4.43761 8.31346 4.25008C8.12886 4.06254 8.02515 3.80819 8.02515 3.54297C8.02515 3.27775 8.12886 3.0234 8.31346 2.83586C8.49807 2.64833 8.74845 2.54297 9.00952 2.54297Z" fill="#E0E0E0"/>
</svg>
