<svg width="26" height="29" viewBox="0 0 26 29" fill="none" xmlns="http://www.w3.org/2000/svg">
<g filter="url(#filter0_d)">
<path d="M7.16675 21.5221H18.8334V19.1055H7.16675V21.5221Z" fill="white"/>
<path d="M18.8334 16.6891H7.16675V14.2725H18.8334V16.6891Z" fill="white"/>
<path d="M7.16675 11.8556H11.8334V9.43896H7.16675V11.8556Z" fill="white"/>
<path fill-rule="evenodd" clip-rule="evenodd" d="M6 2.18896C5.07174 2.18896 4.1815 2.57088 3.52513 3.2507C2.86875 3.93052 2.5 4.85256 2.5 5.81397V22.7306C2.5 23.692 2.86875 24.6141 3.52513 25.2939C4.1815 25.9737 5.07174 26.3556 6 26.3556H20C20.9283 26.3556 21.8185 25.9737 22.4749 25.2939C23.1313 24.6141 23.5 23.692 23.5 22.7306V10.6473C23.5 8.40401 22.6396 6.2526 21.108 4.66635C19.5765 3.08011 17.4993 2.18896 15.3333 2.18896H6ZM6 4.60563H14.1667V10.6473H21.1667V22.7306C21.1667 23.0511 21.0438 23.3584 20.825 23.5851C20.6062 23.8117 20.3094 23.939 20 23.939H6C5.69058 23.939 5.39383 23.8117 5.17504 23.5851C4.95625 23.3584 4.83333 23.0511 4.83333 22.7306V5.81397C4.83333 5.4935 4.95625 5.18615 5.17504 4.95954C5.39383 4.73294 5.69058 4.60563 6 4.60563ZM16.5 4.72646C17.417 4.92103 18.2754 5.34089 19.0031 5.95069C19.7307 6.5605 20.3063 7.34241 20.6813 8.23063H16.5V4.72646Z" fill="white"/>
</g>
<defs>
<filter id="filter0_d" x="0.5" y="0.188965" width="25" height="28.1667" filterUnits="userSpaceOnUse" color-interpolation-filters="sRGB">
<feFlood flood-opacity="0" result="BackgroundImageFix"/>
<feColorMatrix in="SourceAlpha" type="matrix" values="0 0 0 0 0 0 0 0 0 0 0 0 0 0 0 0 0 0 127 0" result="hardAlpha"/>
<feOffset/>
<feGaussianBlur stdDeviation="1"/>
<feComposite in2="hardAlpha" operator="out"/>
<feColorMatrix type="matrix" values="0 0 0 0 1 0 0 0 0 1 0 0 0 0 1 0 0 0 1 0"/>
<feBlend mode="normal" in2="BackgroundImageFix" result="effect1_dropShadow"/>
<feBlend mode="normal" in="SourceGraphic" in2="effect1_dropShadow" result="shape"/>
</filter>
</defs>
</svg>
