<svg width="22" height="25" viewBox="0 0 22 25" fill="none" xmlns="http://www.w3.org/2000/svg">
<path d="M5.16675 19.5221H16.8334V17.1055H5.16675V19.5221Z" fill="white"/>
<path d="M16.8334 14.6891H5.16675V12.2725H16.8334V14.6891Z" fill="white"/>
<path d="M5.16675 9.85563H9.83342V7.43896H5.16675V9.85563Z" fill="white"/>
<path fill-rule="evenodd" clip-rule="evenodd" d="M4 0.188965C3.07174 0.188965 2.1815 0.570884 1.52513 1.2507C0.868749 1.93052 0.5 2.85256 0.5 3.81397V20.7306C0.5 21.692 0.868749 22.6141 1.52513 23.2939C2.1815 23.9737 3.07174 24.3556 4 24.3556H18C18.9283 24.3556 19.8185 23.9737 20.4749 23.2939C21.1313 22.6141 21.5 21.692 21.5 20.7306V8.6473C21.5 6.40401 20.6396 4.2526 19.108 2.66635C17.5765 1.08011 15.4993 0.188965 13.3333 0.188965H4ZM4 2.60563H12.1667V8.6473H19.1667V20.7306C19.1667 21.0511 19.0438 21.3584 18.825 21.5851C18.6062 21.8117 18.3094 21.939 18 21.939H4C3.69058 21.939 3.39383 21.8117 3.17504 21.5851C2.95625 21.3584 2.83333 21.0511 2.83333 20.7306V3.81397C2.83333 3.4935 2.95625 3.18615 3.17504 2.95954C3.39383 2.73294 3.69058 2.60563 4 2.60563ZM14.5 2.72646C15.417 2.92103 16.2754 3.34089 17.0031 3.95069C17.7307 4.5605 18.3063 5.34241 18.6813 6.23063H14.5V2.72646Z" fill="white"/>
</svg>
