<svg width="91" height="90" viewBox="0 0 91 90" fill="none" xmlns="http://www.w3.org/2000/svg">
<g opacity="0.52">
<path d="M75.2167 15H15.2167C11.0917 15 7.75417 18.375 7.75417 22.5L7.71667 67.5C7.71667 71.625 11.0917 75 15.2167 75H75.2167C79.3417 75 82.7167 71.625 82.7167 67.5V22.5C82.7167 18.375 79.3417 15 75.2167 15ZM15.2167 33.75H54.5917V46.875H15.2167V33.75ZM15.2167 54.375H54.5917V67.5H18.9667C16.9042 67.5 15.2167 65.8125 15.2167 63.75V54.375ZM71.4667 67.5H62.0917V33.75H75.2167V63.75C75.2167 65.8125 73.5292 67.5 71.4667 67.5Z" fill="#708FFF"/>
</g>
</svg>
