<svg width="50" height="50" viewBox="0 0 50 50" fill="none" xmlns="http://www.w3.org/2000/svg">
<path opacity="0.52" d="M25.2716 17.0225C20.7785 17.0225 17.1117 20.7284 17.1117 25.2696C17.1117 29.8107 20.7785 33.5166 25.2716 33.5166C29.7648 33.5166 33.4316 29.8107 33.4316 25.2696C33.4316 20.7284 29.7648 17.0225 25.2716 17.0225ZM49.7455 25.2696C49.7455 21.8544 49.7761 18.4703 49.5863 15.0613C49.3966 11.1018 48.5028 7.58767 45.638 4.69225C42.767 1.79064 39.2961 0.89355 35.3783 0.70176C31.9992 0.509969 28.6507 0.540903 25.2778 0.540903C21.8987 0.540903 18.5502 0.509969 15.1773 0.70176C11.2595 0.89355 7.78246 1.79682 4.91759 4.69225C2.0466 7.59386 1.15898 11.1018 0.969208 15.0613C0.779441 18.4764 0.810048 21.8606 0.810048 25.2696C0.810048 28.6785 0.779441 32.0689 0.969208 35.4778C1.15898 39.4373 2.05272 42.9514 4.91759 45.8469C7.78858 48.7485 11.2595 49.6456 15.1773 49.8373C18.5563 50.0291 21.9048 49.9982 25.2778 49.9982C28.6568 49.9982 32.0053 50.0291 35.3783 49.8373C39.2961 49.6456 42.7731 48.7423 45.638 45.8469C48.5089 42.9453 49.3966 39.4373 49.5863 35.4778C49.7822 32.0689 49.7455 28.6847 49.7455 25.2696ZM25.2716 37.9587C18.3237 37.9587 12.7164 32.2916 12.7164 25.2696C12.7164 18.2475 18.3237 12.5804 25.2716 12.5804C32.2196 12.5804 37.8269 18.2475 37.8269 25.2696C37.8269 32.2916 32.2196 37.9587 25.2716 37.9587ZM38.3411 15.0242C36.7189 15.0242 35.4089 13.7002 35.4089 12.0607C35.4089 10.4212 36.7189 9.09725 38.3411 9.09725C39.9633 9.09725 41.2733 10.4212 41.2733 12.0607C41.2738 12.45 41.1983 12.8356 41.0511 13.1954C40.9039 13.5551 40.6879 13.882 40.4156 14.1573C40.1432 14.4326 39.8198 14.6509 39.4638 14.7996C39.1078 14.9484 38.7263 15.0247 38.3411 15.0242Z" fill="#708FFF"/>
</svg>
