<svg width="95" height="67" viewBox="0 0 95 67" fill="none" xmlns="http://www.w3.org/2000/svg">
<path d="M47.5847 0.611328H48.1083C52.9445 0.628979 77.4493 0.805484 84.0564 2.5823C86.0538 3.12457 87.8739 4.18156 89.3349 5.64764C90.7958 7.11373 91.8463 8.93755 92.3816 10.9369C92.9758 13.1726 93.3935 16.132 93.6759 19.1855L93.7348 19.7974L93.8642 21.3271L93.9113 21.939C94.2937 27.3165 94.3408 32.3528 94.3466 33.453V33.8942C94.3408 35.0356 94.2878 40.4131 93.8642 46.0142L93.8171 46.632L93.7642 47.2439C93.47 50.6092 93.0346 53.9511 92.3816 56.4104C91.848 58.4105 90.798 60.2352 89.3368 61.7015C87.8756 63.1678 86.0546 64.2243 84.0564 64.7649C77.2316 66.6006 51.2913 66.73 47.6964 66.7359H46.861C45.043 66.7359 37.5239 66.7006 29.64 66.4299L28.6398 66.3946L28.128 66.3711L27.1219 66.3299L26.1158 66.2887C19.5851 66.0005 13.3663 65.5357 10.501 64.759C8.50351 64.2189 6.68301 63.1633 5.2219 61.6981C3.76079 60.2328 2.71037 58.4094 2.17588 56.4104C1.52281 53.9569 1.08743 50.6092 0.793257 47.2439L0.746189 46.6261L0.699121 46.0142C0.408757 42.0276 0.247857 38.0325 0.216675 34.0354L0.216675 33.3118C0.228442 32.0468 0.27551 27.6754 0.593218 22.8509L0.634403 22.2449L0.652053 21.939L0.699121 21.3271L0.828558 19.7974L0.887393 19.1855C1.1698 16.132 1.58753 13.1667 2.18176 10.9369C2.71536 8.93675 3.76537 7.11206 5.22654 5.64573C6.68772 4.17939 8.50869 3.12295 10.5069 2.5823C13.3722 1.81744 19.591 1.34676 26.1217 1.05259L27.1219 1.01141L28.1338 0.976105L28.6398 0.958455L29.6459 0.917271C35.2453 0.737086 40.8469 0.637056 46.4491 0.617212H47.5847V0.611328ZM37.871 19.4973V47.844L62.3287 33.6765L37.871 19.4973Z" fill="#708FFF"/>
</svg>
